Coordinates
version=1
nRows=5
nColumns=40
inDegrees=yes

Units are S.I. units (second, meters, Newtons, ...)
Angles are in degrees.

endheader
time	pelvis_tilt	pelvis_list	pelvis_rotation	pelvis_tx	pelvis_ty	pelvis_tz	hip_flexion_r	hip_adduction_r	hip_rotation_r	knee_angle_r	knee_angle_r_beta	ankle_angle_r	subtalar_angle_r	mtp_angle_r	hip_flexion_l	hip_adduction_l	hip_rotation_l	knee_angle_l	knee_angle_l_beta	ankle_angle_l	subtalar_angle_l	mtp_angle_l	lumbar_extension	lumbar_bending	lumbar_rotation	arm_flex_r	arm_add_r	arm_rot_r	elbow_flex_r	pro_sup_r	wrist_flex_r	wrist_dev_r	arm_flex_l	arm_add_l	arm_rot_l	elbow_flex_l	pro_sup_l	wrist_flex_l	wrist_dev_l
      8.76250000	      0.11920992	     -5.25262811	     -2.79323889	      1.03629387	      0.92191909	      0.58206463	     10.89846097	      6.28479760	     -9.41869943	     26.16042131	     26.16042131	     16.14023762	    -10.21853424	     -2.34649343	     25.01591282	    -14.14792865	     -1.56370260	     54.89085366	     54.89085366	     18.12038211	    -19.59467914	     23.07329693	    -11.58325590	      6.16170597	     -0.26834099	     15.65653624	    -15.10435167	    -12.06759459	     40.91019940	     46.00786153	      0.00000000	      0.00000000	      8.82780616	     -8.45296811	     -7.27149851	     42.60976875	     46.91431832	      0.00000000	      0.00000000
      8.78157143	      0.22957053	     -5.25765938	     -2.09396074	      1.03439775	      0.92064241	      0.58234804	     10.88564938	      6.29339387	     -9.65475500	     26.86539228	     26.86539228	     16.95741717	    -10.77995939	     -1.27027174	     25.83440695	    -13.82020486	     -1.20948083	     53.05467518	     53.05467518	     18.16357335	    -19.58473227	     22.70769000	    -11.61249742	      6.09671901	      0.32726608	     16.56329645	    -15.26486076	    -10.81234331	     44.52453411	     45.79585723	      0.00000000	      0.00000000	      9.23512523	     -7.76538090	     -5.36091301	     35.72633816	     46.63405313	      0.00000000	      0.00000000
      8.80064286	      0.35725567	     -5.14297913	     -1.43093377	      1.03249455	      0.91969709	      0.58250003	     10.74570287	      6.17532833	     -9.86762218	     27.33273771	     27.33273771	     17.36770535	    -11.41388167	     -1.31829200	     26.49951864	    -13.34615874	     -0.93973748	     51.09022221	     51.09022221	     18.13591333	    -19.56071149	     22.65277918	    -11.72386623	      5.81326168	     -0.11029582	     18.94090913	    -14.50136165	    -10.69596526	     46.29314118	     45.73584034	      0.00000000	      0.00000000	      7.45087587	     -7.59236980	     -4.96853318	     33.74380390	     46.54985384	      0.00000000	      0.00000000
      8.81971429	      0.38296592	     -5.10150015	     -0.73228405	      1.03057659	      0.91908595	      0.58239500	     10.52205581	      6.13006261	    -10.21048804	     27.43970231	     27.43970231	     17.66495669	    -11.81580203	     -1.24804720	     27.20365251	    -12.87706401	     -0.52440527	     49.06727358	     49.06727358	     17.89527133	    -19.52891828	     22.39446798	    -11.71350615	      5.66267182	     -0.53277813	     21.19316700	    -13.76374756	    -10.38595941	     48.34220928	     45.65628862	      0.00000000	      0.00000000	      5.79783992	     -7.42022433	     -4.44089066	     31.35560784	     46.44642352	      0.00000000	      0.00000000
      8.83878571	      0.34574947	     -5.09430408	     -0.08286143	      1.02867831	      0.91886280	      0.58210187	     10.23016517	      6.10384916	    -10.64366420	     27.30935731	     27.30935731	     17.98567250	    -11.90207550	     -0.94688576	     27.81488181	    -12.45353023	     -0.14397360	     46.90894715	     46.90894715	     17.11609762	    -19.48312968	     20.94062584	    -11.63203231	      5.55454030	      0.16447915	     22.18593574	    -14.28219957	     -8.90576077	     52.11907863	     45.46127284	      0.00000000	      0.00000000	      5.43802821	     -7.03976446	     -2.61652656	     27.06245458	     46.15287266	      0.00000000	      0.00000000
